<svg width="32" height="32" viewBox="0 0 32 32" fill="none" xmlns="http://www.w3.org/2000/svg">
<path fill-rule="evenodd" clip-rule="evenodd" d="M20.576 0.0145946L20.5906 0H28V7.49174L27.9832 7.50844C27.9943 7.63534 28 7.76354 28 7.89286C28 10.5715 25.5629 12.7685 22.4625 12.9829L22.4452 13H15V5.58856L15.0239 5.56468C15.0081 5.41396 15 5.26135 15 5.10714C15 2.41743 17.4573 0.21335 20.576 0.0145946ZM6.02061 14L6.00489 14.0157C2.64634 14.2298 0 16.6034 0 19.5C0 19.6661 0.00869813 19.8304 0.0257299 19.9927L0 20.0185V28H8.01791L8.03654 27.9815C11.3754 27.7507 14 25.3847 14 22.5C14 22.3607 13.9939 22.2227 13.9819 22.086L14 22.068V14H6.02061ZM32 21.0714C32 17.3472 28.7866 14.2954 24.7084 14.0202L24.6893 14H15V24.3732L15.022 24.3963C15.0074 24.572 15 24.7495 15 24.9286C15 28.6375 18.187 31.6795 22.2413 31.9763L22.264 32H32V21.738L31.9688 21.7049C31.9894 21.4962 32 21.2849 32 21.0714ZM14 6.92857C14 4.85956 11.9207 3.16412 9.28188 3.01123L9.26952 3H3V8.76287L3.01425 8.77572C3.00481 8.87334 3 8.97195 3 9.07143C3 11.1319 5.06219 12.8219 7.68558 12.9868L7.70021 13H14V7.2989L13.9798 7.28052C13.9932 7.16458 14 7.04719 14 6.92857Z" fill="#7E57C2"/>
</svg>
